# xmcd
#
# Track frame offsets: 
#        150
#        18365
#        30883
#        43790
#        56636
#        72899
#        88449
#        104004
#        118131
#        129496
#        144411
#        157988
#
# Disc length: 2290 seconds
#
# Revision: 0
# Processed by: cddbd v1.5.2PL0 Copyright (c) Steve Scherf et al.
# Submitted via: ExactAudioCopy v0.99pb5
#
DISCID=a408f00c
DTITLE=HENRIQUE E DIEGO - É TUDO NOSSO
DYEAR=2011
DGENRE=SERTANEJO
TTITLE0=COPINHO
TTITLE1=VAI
TTITLE2=TOP DE VERÃO
TTITLE3=TE PEÇO VOLTA
TTITLE4=ME LIGA
TTITLE5=VACILEI
TTITLE6=ZUAR E BEBER
TTITLE7=TE AMO TANTO
TTITLE8=BATE BATE
TTITLE9=SAUDADE QUE RÓI
TTITLE10=DOMINGO
TTITLE11=DANÇA DO ICE
EXTD=
EXTT0=
EXTT1=
EXTT2=
EXTT3=
EXTT4=
EXTT5=
EXTT6=
EXTT7=
EXTT8=
EXTT9=
EXTT10=
EXTT11=
PLAYORDER=
